<svg width="45" height="54" viewBox="0 0 45 54" fill="none" xmlns="http://www.w3.org/2000/svg">
<g clip-path="url(#clip0_7_2)">
<path d="M21.8548 39.6C19.0237 39.6 16.3825 39.15 13.9312 38.25C11.5143 37.35 9.40829 36.0834 7.61295 34.45C5.85213 32.8166 4.4711 30.9 3.46986 28.7C2.50313 26.5 2.01978 24.1 2.01978 21.5C2.01978 18.9 2.50313 16.5 3.46986 14.3C4.4711 12.1 5.86939 10.1834 7.66474 8.55002C9.46008 6.91668 11.5661 5.65002 13.9829 4.75002C16.3998 3.85002 19.0237 3.40002 21.8548 3.40002C24.7204 3.40002 27.3444 3.85002 29.7267 4.75002C32.1436 5.65002 34.2323 6.91668 35.9931 8.55002C37.7885 10.15 39.1868 12.05 40.188 14.25C41.1892 16.45 41.6899 18.8666 41.6899 21.5C41.6899 24.1 41.1892 26.5166 40.188 28.75C39.1868 30.95 37.7885 32.8666 35.9931 34.5C34.2323 36.1 32.1436 37.35 29.7267 38.25C27.3444 39.15 24.7204 39.6 21.8548 39.6ZM33.7144 47.05C32.2989 47.05 30.9524 46.9 29.6749 46.6C28.432 46.3 27.189 45.8166 25.9461 45.15C24.7378 44.4834 23.4603 43.5834 22.1138 42.45C20.8019 41.3166 19.369 39.9166 17.8153 38.25L26.6194 36.1C27.5516 37.3334 28.4148 38.3166 29.2088 39.05C30.0028 39.7834 30.7625 40.3 31.4875 40.6C32.2471 40.9 33.0412 41.05 33.8698 41.05C36.0795 41.05 38.0475 40.1834 39.7737 38.45L43.5025 42.75C41.0512 45.6166 37.7885 47.05 33.7144 47.05ZM21.8548 32.7C23.4775 32.7 24.9621 32.4334 26.3086 31.9C27.6897 31.3666 28.8981 30.6 29.9338 29.6C30.9696 28.6 31.7636 27.4166 32.3161 26.05C32.903 24.65 33.1965 23.1334 33.1965 21.5C33.1965 19.8334 32.903 18.3166 32.3161 16.95C31.7636 15.5834 30.9696 14.4 29.9338 13.4C28.8981 12.4 27.6897 11.6334 26.3086 11.1C24.9621 10.5667 23.4775 10.3 21.8548 10.3C20.2321 10.3 18.7302 10.5667 17.3492 11.1C15.9682 11.6334 14.7598 12.4 13.724 13.4C12.7228 14.4 11.9287 15.5834 11.3417 16.95C10.7893 18.3166 10.5131 19.8334 10.5131 21.5C10.5131 23.1334 10.7893 24.65 11.3417 26.05C11.9287 27.4166 12.7228 28.6 13.724 29.6C14.7598 30.6 15.9682 31.3666 17.3492 31.9C18.7302 32.4334 20.2321 32.7 21.8548 32.7ZM71.8698 39.6C66.7253 39.6 62.7032 38.2166 59.803 35.45C56.9029 32.6834 55.4528 28.7334 55.4528 23.6V4.00002H63.8425V23.3C63.8425 26.6334 64.5502 29.0334 65.9659 30.5C67.3814 31.9666 69.3665 32.7 71.9216 32.7C74.4764 32.7 76.4616 31.9666 77.8773 30.5C79.2928 29.0334 80.0004 26.6334 80.0004 23.3V4.00002H88.2868V23.6C88.2868 28.7334 86.8367 32.6834 83.9365 35.45C81.0364 38.2166 77.0141 39.6 71.8698 39.6ZM104.346 39V4.00002H112.735V39H104.346ZM146.456 39.6C143.66 39.6 141.053 39.1666 138.636 38.3C136.254 37.4 134.182 36.1334 132.421 34.5C130.661 32.8666 129.28 30.95 128.278 28.75C127.312 26.55 126.828 24.1334 126.828 21.5C126.828 18.8666 127.312 16.45 128.278 14.25C129.28 12.05 130.661 10.1334 132.421 8.50002C134.217 6.86668 136.306 5.61668 138.688 4.75002C141.07 3.85002 143.677 3.40002 146.508 3.40002C149.65 3.40002 152.481 3.93336 155.001 5.00002C157.556 6.03336 159.697 7.56669 161.423 9.60003L156.037 14.4C154.794 13.0334 153.413 12.0166 151.894 11.35C150.375 10.65 148.718 10.3 146.922 10.3C145.231 10.3 143.677 10.5667 142.261 11.1C140.846 11.6334 139.62 12.4 138.584 13.4C137.549 14.4 136.737 15.5834 136.15 16.95C135.598 18.3166 135.322 19.8334 135.322 21.5C135.322 23.1666 135.598 24.6834 136.15 26.05C136.737 27.4166 137.549 28.6 138.584 29.6C139.62 30.6 140.846 31.3666 142.261 31.9C143.677 32.4334 145.231 32.7 146.922 32.7C148.718 32.7 150.375 32.3666 151.894 31.7C153.413 31 154.794 29.95 156.037 28.55L161.423 33.35C159.697 35.3834 157.556 36.9334 155.001 38C152.481 39.0666 149.633 39.6 146.456 39.6ZM182.366 31L181.9 21.65L199.249 4.00002H208.571L192.931 20.25L188.27 25.05L182.366 31ZM174.857 39V4.00002H183.195V39H174.857ZM199.664 39L186.768 23.75L192.258 18L209.452 39H199.664ZM220.961 39V4.00002H238.673C243.23 4.00002 246.649 4.83336 248.927 6.50002C251.241 8.16668 252.397 10.3667 252.397 13.1C252.397 14.9334 251.931 16.5334 250.999 17.9C250.067 19.2334 248.788 20.2666 247.166 21C245.544 21.7334 243.68 22.1 241.573 22.1L242.557 20.05C244.836 20.05 246.856 20.4166 248.616 21.15C250.377 21.85 251.74 22.9 252.708 24.3C253.708 25.7 254.21 27.4166 254.21 29.45C254.21 32.45 252.983 34.8 250.533 36.5C248.082 38.1666 244.473 39 239.709 39H220.961ZM229.299 32.9H239.087C241.262 32.9 242.903 32.5666 244.007 31.9C245.147 31.2 245.716 30.1 245.716 28.6C245.716 27.1334 245.147 26.05 244.007 25.35C242.903 24.6166 241.262 24.25 239.087 24.25H228.678V18.35H237.637C239.674 18.35 241.227 18.0166 242.298 17.35C243.402 16.65 243.956 15.6 243.956 14.2C243.956 12.8334 243.402 11.8167 242.298 11.15C241.227 10.45 239.674 10.1 237.637 10.1H229.299V32.9ZM276.046 18.1H293.499V24.4H276.046V18.1ZM276.667 32.5H296.399V39H268.329V4.00002H295.725V10.5H276.667V32.5ZM318.353 39V10.6H306.752V4.00002H338.343V10.6H326.743V39H318.353Z" fill="white"/>
</g>
<defs>
<clipPath id="clip0_7_2">
<rect width="45" height="54" fill="white"/>
</clipPath>
</defs>
</svg>
